HIERARCHY
ROOT Hips
{
	OFFSET 0.00000 0.00000 0.00000
	CHANNELS 6 Xposition Yposition Zposition Yrotation Zrotation Xrotation 
	JOINT Lumbar
	{
		OFFSET 0 0 0
		CHANNELS 3 Zrotation Xrotation Yrotation
		JOINT Neck
		{
			OFFSET 0.00 0.2701 0.00
			CHANNELS 3 Zrotation Xrotation Yrotation
			End Site
			{
				OFFSET 0.00 0.1379 0.00
			}
		}
		JOINT RightShoulder
		{
			OFFSET 0.0119 0.2289 0.1181
			CHANNELS 3 Zrotation Xrotation Yrotation
			JOINT RightElbow
			{
				OFFSET 0.00 -0.1475 0.00
				CHANNELS 2 Zrotation Yrotation
				JOINT RightWrist
				{
					OFFSET 0.00 -0.1605 0.00
					CHANNELS 2 Zrotation Xrotation
					End Site
					{
						OFFSET 0.0040 -0.1068 0.0006
					}
				}
			}
		}
		JOINT LeftShoulder
		{
			OFFSET 0.0119 0.2289 -0.1181
			CHANNELS 3 Zrotation Xrotation Yrotation
			JOINT LeftElbow
			{
				OFFSET 0.00 -0.1475 0.00
				CHANNELS 2 Zrotation Yrotation
				JOINT LeftWrist
				{
					OFFSET 0.00 -0.1605 0.00
					CHANNELS 2 Zrotation Xrotation
					End Site
					{
						OFFSET 0.0040 -0.1068 -0.0006
					}
				}
			}
		}
	}
	JOINT RightHip
	{
		OFFSET 0.0316 -0.0424 0.0458
		CHANNELS 3 Zrotation Xrotation Yrotation
		JOINT RightKnee
		{
			OFFSET 0.00 -0.2438 0.00
			CHANNELS 1 Zrotation
			JOINT RightAnkle
			{
				OFFSET 0.00 -0.2449 0.00
				CHANNELS 3 Zrotation Xrotation Yrotation
				End Site
				{
					OFFSET 0.1237 -0.0542 0.0051
				}
			}
		}
	}
	JOINT LeftHip
	{
		OFFSET 0.0316 -0.0424 -0.0458
		CHANNELS 3 Zrotation Xrotation Yrotation
		JOINT LeftKnee
		{
			OFFSET 0.00 -0.2438 0.00
			CHANNELS 1 Zrotation
			JOINT LeftAnkle
			{
				OFFSET 0.00 -0.2449 0.00
				CHANNELS 3 Zrotation Xrotation Yrotation
				End Site
				{
					OFFSET 0.1237 -0.0542 -0.0051
				}
			}
		}
	}
}
MOTION
Frames: 11
Frame Time: 0.02
-0.53156 0.56137 0.06752 173.62719 0 -5.60238 -58.06927 -0.38209 43.77862 -66.57135 38.94682 -7.98604 134.02811 -7.77809 52.1839 5.79894 82.64609 -0.62057 0.25564 130.26007 -6.22728 -42.98046 5.85193 -80.65862 -1.1536 -1.87921 5.30282 -4.44305 -2.90455 -18.56162 2.89808 0.41105 5.77364 19.36721 1.18757 8.70954 -27.33038 4.26505 -1.21454 -7.4947
-0.53122 0.56148 0.06669 173.64679 0 -5.63092 -58.06927 -0.58445 43.20647 -66.58614 38.97827 -9.35999 133.88713 -6.33449 51.63373 5.87813 82.54666 -0.62244 -0.02399 130.31021 -4.81176 -43.17287 5.73972 -80.53682 -1.23642 -1.6944 5.35477 -4.33028 -2.88127 -18.62855 2.88997 0.40037 5.70873 19.40536 1.24808 8.48871 -27.35194 4.24561 -1.18612 -7.41201
-0.53092 0.56153 0.06588 173.67392 0 -5.66241 -58.06927 -0.76438 42.69538 -66.57634 38.96241 -10.29801 133.88949 -5.30787 51.12753 5.99271 82.4597 -0.60121 -0.33794 130.40548 -3.57348 -44.14134 5.80314 -80.7774 -1.19059 -1.42951 5.4044 -4.21671 -2.8587 -18.70789 2.91035 0.38748 5.62677 19.46367 1.31514 8.2878 -27.42416 4.25056 -1.15938 -7.34326
-0.53062 0.56162 0.06506 173.69589 0 -5.69418 -58.06927 -0.95399 42.09017 -66.54874 38.88993 -11.40383 133.78131 -4.11774 50.61411 6.1047 82.3652 -0.58946 -0.63292 130.43083 -2.27315 -44.71429 5.80069 -80.83809 -1.20582 -1.20484 5.45233 -4.10216 -2.8364 -18.77791 2.91398 0.37598 5.55508 19.51105 1.37951 8.07204 -27.47304 4.24653 -1.13123 -7.26296
-0.53024 0.56168 0.06424 173.72407 0 -5.71872 -58.06926 -1.14613 41.75203 -66.66035 39.14674 -12.65214 133.88436 -2.79213 50.0439 6.15556 82.27663 -0.58212 -0.94184 130.67837 -0.86606 -45.44127 5.74864 -80.9519 -1.20616 -0.96479 5.51393 -3.99385 -2.81048 -18.8666 2.93488 0.3638 5.47348 19.56653 1.44197 7.87918 -27.52437 4.23425 -1.10592 -7.20311
-0.53003 0.56177 0.06343 173.74168 0 -5.75895 -58.06927 -1.32741 40.88409 -66.45496 38.70701 -13.48963 133.55795 -1.87005 49.60086 6.34745 82.17897 -0.56034 -1.23081 130.45522 0.25557 -46.04726 5.83878 -81.04677 -1.20846 -0.73766 5.54533 -3.8724 -2.79298 -18.91789 2.92625 0.35213 5.40818 19.60919 1.51013 7.64465 -27.58173 4.24461 -1.07515 -7.10517
-0.53027 0.56198 0.06264 173.72657 0 -5.84465 -58.06928 -1.48563 38.45067 -65.56034 36.35234 -13.36576 132.20721 -1.79755 49.53321 6.87414 82.05977 -0.5012 -1.44595 129.08356 0.76474 -46.06179 6.27236 -80.98124 -1.24938 -0.56373 5.49865 -3.71146 -2.79506 -18.86594 2.82735 0.3427 5.39229 19.61761 1.59387 7.28125 -27.64904 4.31254 -1.02775 -6.89124
-0.53068 0.56222 0.06185 173.70106 0 -5.94563 -58.06925 -1.63338 35.49793 -64.31317 33.30042 -12.83412 130.38207 -2.14185 49.58766 7.54975 81.93079 -0.42898 -1.64155 127.205 0.97233 -45.94111 6.84462 -80.88747 -1.29796 -0.40604 5.42052 -3.53781 -2.80636 -18.77499 2.69781 0.33369 5.39334 19.61123 1.68297 6.87685 -27.71943 4.40212 -0.97495 -6.6399
-0.53102 0.56245 0.06106 173.68149 0 -6.03782 -58.0693 -1.78497 32.84252 -63.11026 30.56787 -12.43891 128.64553 -2.4124 49.56239 8.18776 81.80148 -0.36462 -1.85292 125.45437 1.22012 -45.93238 7.35354 -80.82281 -1.34125 -0.24187 5.35349 -3.37206 -2.81584 -18.69946 2.58338 0.32416 5.38628 19.60775 1.76883 6.49737 -27.7847 4.48104 -0.92541 -6.41079
-0.5313 0.56267 0.06027 173.65683 0 -6.13777 -58.06928 -1.93974 29.93483 -62.3991 27.81694 -12.21741 127.45174 -2.23735 49.63538 8.70147 81.68999 -0.29092 -2.03687 124.1443 1.84323 -45.74625 7.86216 -80.70867 -1.38359 -0.07019 5.29999 -3.19736 -2.81531 -18.634 2.46533 0.31592 5.38002 19.62146 1.85837 6.09264 -27.86784 4.56436 -0.87267 -6.1605
-0.53176 0.56293 0.05949 173.64044 0 -6.22529 -58.06914 -2.0856 27.42275 -60.57647 24.94706 -11.56501 125.01096 -3.0484 49.53902 9.50717 81.54232 -0.23443 -2.27227 121.78744 1.64998 -45.87602 8.41199 -80.67771 -1.43646 0.07982 5.21074 -3.03826 -2.83783 -18.53832 2.34669 0.30515 5.37678 19.59516 1.94134 5.72973 -27.91336 4.64322 -0.82512 -5.94471
